<svg xmlns="http://www.w3.org/2000/svg" xml:space="preserve" width="512" height="445" shape-rendering="geometricPrecision" text-rendering="geometricPrecision" image-rendering="optimizeQuality" fill-rule="evenodd" clip-rule="evenodd" viewBox="0 0 512 444.66"><path d="M316.58 227.16h-8.33v13.11c0 5.13-4.19 9.33-9.33 9.33h-5.48c-5.13 0-9.33-4.2-9.33-9.33v-13.11h-56.46v13.11c0 5.13-4.2 9.33-9.33 9.33h-5.48c-5.13 0-9.33-4.2-9.33-9.33v-13.11h-7.1c-4.87-.07-7.2-2.68-7.56-7.27v-107c-2.7.27-4.05.9-4.71 2.31v30.59h-5.92c-3.67 0-6.69-3.02-6.69-6.7v-18.07c0-3.61 2.91-6.59 6.51-6.69.56-5.26 2.82-6.77 11-7.17 1.13-9.17 7.35-15.95 18.74-20.33 24.37-4.47 70.62-4.94 96.46 0 11.38 4.39 17.6 11.17 18.72 20.34 8.2.42 10.46 1.95 11.02 7.16 3.59.11 6.5 3.08 6.5 6.69v18.07c0 3.68-3.02 6.7-6.7 6.7h-5.91v-30.68c-.66-1.38-2.01-1.98-4.72-2.23v105.97c0 6.14-1.97 8.32-6.57 8.31zm-38.89 155.83a31.082 31.082 0 0 1-17.82 5.72c-5.76.01-11.54-1.55-16.63-4.78l-.08-.09c-15.89-10.11-30.56-21.25-43.86-33.11-13.77-12.2-26.17-25.35-37.07-39.07-14.75-18.49-26.83-38.07-36.07-57.99-9.43-20.39-15.92-41.33-19.24-62.03-3.47-21.51-3.53-42.6-.01-62.49 3.54-19.95 10.62-38.79 21.41-55.76 4.34-6.74 9.35-13.34 15.03-19.63 5.39-6.09 11.48-11.83 18.15-17.13 15.02-11.96 31.22-21.16 47.96-27.33 16.96-6.26 34.62-9.42 52.32-9.3 17.63.13 35.04 3.5 51.62 10.25 16.04 6.65 31.33 16.23 45.27 28.95 4.91 4.45 9.6 9.43 13.99 14.79 4.47 5.43 8.43 11.04 11.91 16.75 11.48 18.99 18.55 40.3 21.5 62.78 3.01 22.78 1.83 46.88-3.15 70.99-7.51 36.48-23.21 71.7-44.95 102.49-21.4 30.31-48.86 56.64-80.28 75.99zm-13.54-22.14c-2.46 1.8-5.8 2.04-8.53.29-29.52-18.79-54.35-41.36-73.82-65.85-26.89-33.74-43.84-71.15-49.63-107.18-5.9-36.53-.39-71.66 17.79-100.24 7.17-11.3 16.32-21.59 27.48-30.46 25.66-20.46 54.97-31.24 84.13-31.03 28.12.2 55.86 10.7 79.83 32.57 8.43 7.65 15.52 16.43 21.31 25.95 19.55 32.19 23.76 73.25 15.15 114.87-13.4 65.2-56.46 126.33-113.71 161.08zm208.57 55.65-36.95-108.46c-1.61-4.74-4.32-9.19-9.18-9.19h-20.68l13.86-28.15h6.82c11.58 0 20.32 4.92 26.92 12.49 4.29 4.91 7.05 10.47 8.88 15.83L512 444.66H0l44.38-144.87c2.03-6.49 5.46-13.25 10.69-18.48h.11c6.47-6.44 14.74-10.61 25.22-10.61h13.74l15.09 28.15H80.4c-4.87 0-7.77 4.57-9.18 9.19L37.98 416.5h434.74zM242.59 212h26.82c.72 0 1.32.59 1.32 1.31v4.5c0 .72-.6 1.31-1.32 1.31h-26.82c-.72 0-1.31-.59-1.31-1.31v-4.5c0-.72.59-1.31 1.31-1.31zm69.89.08a3.485 3.485 0 1 1 0 6.97c-1.91 0-3.47-1.56-3.47-3.49a3.48 3.48 0 0 1 3.47-3.48zm-114.74 0a3.485 3.485 0 1 1 0 6.97 3.485 3.485 0 0 1 0-6.97zm120.89-11.99-.39-9.28c-.21-1.63-1.07-2.34-2.61-2.08-7.86 4.15-15.26 8.91-22.35 14.11-1.51 1-.91 2.93 1.08 2.58l21-1.53c2.05-.35 3.03-1.71 3.27-3.8zm-125.79 0 .39-9.28c.21-1.63 1.07-2.34 2.61-2.08 7.85 4.15 15.25 8.91 22.35 14.11 1.51 1 .9 2.93-1.09 2.58l-21-1.53c-2.04-.35-3.02-1.71-3.26-3.8zM237.78 91.7h36.45c1.22 0 2.22 1.02 2.22 2.24v5.79c0 1.22-1.01 2.23-2.22 2.23h-36.45c-1.22 0-2.22-1-2.22-2.23v-5.79c0-1.23 1-2.24 2.22-2.24zm-38.32 17.6h112.58c1.49 0 2.72 1.22 2.72 2.73v59.39c0 1.48-1.21 2.32-2.72 2.72-38.61 11.73-73.97 11.24-112.58 0-1.52-.41-2.72-1.24-2.72-2.72v-59.4c-.01-1.5 1.23-2.72 2.72-2.72z"/></svg>